<svg xmlns="http://www.w3.org/2000/svg" version="1.1" xmlns:xlink="http://www.w3.org/1999/xlink" xmlns:svgjs="http://svgjs.dev/svgjs" width="1920" height="1080" preserveAspectRatio="none" viewBox="0 0 1920 1080"><g mask="url(&quot;#SvgjsMask2374&quot;)" fill="none"><rect width="1920" height="1080" x="0" y="0" fill="url(&quot;#SvgjsLinearGradient2375&quot;)"></rect><use xlink:href="#SvgjsSymbol2382" x="0" y="0"></use><use xlink:href="#SvgjsSymbol2382" x="0" y="720"></use><use xlink:href="#SvgjsSymbol2382" x="720" y="0"></use><use xlink:href="#SvgjsSymbol2382" x="720" y="720"></use><use xlink:href="#SvgjsSymbol2382" x="1440" y="0"></use><use xlink:href="#SvgjsSymbol2382" x="1440" y="720"></use></g><defs><mask id="SvgjsMask2374"><rect width="1920" height="1080" fill="#ffffff"></rect></mask><linearGradient x1="10.94%" y1="-19.44%" x2="89.06%" y2="119.44%" gradientUnits="userSpaceOnUse" id="SvgjsLinearGradient2375"><stop stop-color="#0e2a47" offset="0"></stop><stop stop-color="rgba(27, 38, 52, 1)" offset="0.35"></stop><stop stop-color="#00459e" offset="1"></stop></linearGradient><path d="M-1 0 a1 1 0 1 0 2 0 a1 1 0 1 0 -2 0z" id="SvgjsPath2380"></path><path d="M-3 0 a3 3 0 1 0 6 0 a3 3 0 1 0 -6 0z" id="SvgjsPath2381"></path><path d="M-5 0 a5 5 0 1 0 10 0 a5 5 0 1 0 -10 0z" id="SvgjsPath2377"></path><path d="M2 -2 L-2 2z" id="SvgjsPath2379"></path><path d="M6 -6 L-6 6z" id="SvgjsPath2378"></path><path d="M30 -30 L-30 30z" id="SvgjsPath2376"></path></defs><symbol id="SvgjsSymbol2382"><use xlink:href="#SvgjsPath2376" x="30" y="30" stroke="rgba(179, 196, 215, 1)" stroke-width="3"></use><use xlink:href="#SvgjsPath2377" x="30" y="90" stroke="rgba(179, 196, 215, 1)"></use><use xlink:href="#SvgjsPath2378" x="30" y="150" stroke="rgba(179, 196, 215, 1)"></use><use xlink:href="#SvgjsPath2379" x="30" y="210" stroke="rgba(179, 196, 215, 1)"></use><use xlink:href="#SvgjsPath2380" x="30" y="270" stroke="rgba(179, 196, 215, 1)"></use><use xlink:href="#SvgjsPath2381" x="30" y="330" stroke="rgba(179, 196, 215, 1)"></use><use xlink:href="#SvgjsPath2378" x="30" y="390" stroke="rgba(179, 196, 215, 1)"></use><use xlink:href="#SvgjsPath2380" x="30" y="450" stroke="rgba(179, 196, 215, 1)"></use><use xlink:href="#SvgjsPath2379" x="30" y="510" stroke="rgba(179, 196, 215, 1)"></use><use xlink:href="#SvgjsPath2379" x="30" y="570" stroke="rgba(179, 196, 215, 1)"></use><use xlink:href="#SvgjsPath2379" x="30" y="630" stroke="rgba(179, 196, 215, 1)"></use><use xlink:href="#SvgjsPath2377" x="30" y="690" stroke="rgba(179, 196, 215, 1)"></use><use xlink:href="#SvgjsPath2378" x="90" y="30" stroke="rgba(179, 196, 215, 1)"></use><use xlink:href="#SvgjsPath2378" x="90" y="90" stroke="rgba(179, 196, 215, 1)"></use><use xlink:href="#SvgjsPath2377" x="90" y="150" stroke="rgba(179, 196, 215, 1)"></use><use xlink:href="#SvgjsPath2378" x="90" y="210" stroke="rgba(179, 196, 215, 1)"></use><use xlink:href="#SvgjsPath2380" x="90" y="270" stroke="rgba(179, 196, 215, 1)"></use><use xlink:href="#SvgjsPath2378" x="90" y="330" stroke="rgba(179, 196, 215, 1)"></use><use xlink:href="#SvgjsPath2378" x="90" y="390" stroke="rgba(179, 196, 215, 1)"></use><use xlink:href="#SvgjsPath2381" x="90" y="450" stroke="rgba(179, 196, 215, 1)"></use><use xlink:href="#SvgjsPath2381" x="90" y="510" stroke="rgba(179, 196, 215, 1)"></use><use xlink:href="#SvgjsPath2378" x="90" y="570" stroke="rgba(179, 196, 215, 1)"></use><use xlink:href="#SvgjsPath2380" x="90" y="630" stroke="rgba(179, 196, 215, 1)"></use><use xlink:href="#SvgjsPath2378" x="90" y="690" stroke="rgba(179, 196, 215, 1)"></use><use xlink:href="#SvgjsPath2378" x="150" y="30" stroke="rgba(179, 196, 215, 1)"></use><use xlink:href="#SvgjsPath2378" x="150" y="90" stroke="rgba(179, 196, 215, 1)"></use><use xlink:href="#SvgjsPath2380" x="150" y="150" stroke="rgba(179, 196, 215, 1)"></use><use xlink:href="#SvgjsPath2377" x="150" y="210" stroke="rgba(179, 196, 215, 1)"></use><use xlink:href="#SvgjsPath2378" x="150" y="270" stroke="rgba(179, 196, 215, 1)"></use><use xlink:href="#SvgjsPath2377" x="150" y="330" stroke="rgba(179, 196, 215, 1)"></use><use xlink:href="#SvgjsPath2379" x="150" y="390" stroke="rgba(179, 196, 215, 1)"></use><use xlink:href="#SvgjsPath2378" x="150" y="450" stroke="rgba(179, 196, 215, 1)"></use><use xlink:href="#SvgjsPath2379" x="150" y="510" stroke="rgba(179, 196, 215, 1)"></use><use xlink:href="#SvgjsPath2380" x="150" y="570" stroke="rgba(179, 196, 215, 1)"></use><use xlink:href="#SvgjsPath2378" x="150" y="630" stroke="rgba(179, 196, 215, 1)"></use><use xlink:href="#SvgjsPath2377" x="150" y="690" stroke="rgba(179, 196, 215, 1)"></use><use xlink:href="#SvgjsPath2380" x="210" y="30" stroke="rgba(179, 196, 215, 1)"></use><use xlink:href="#SvgjsPath2378" x="210" y="90" stroke="rgba(179, 196, 215, 1)"></use><use xlink:href="#SvgjsPath2377" x="210" y="150" stroke="rgba(179, 196, 215, 1)"></use><use xlink:href="#SvgjsPath2379" x="210" y="210" stroke="rgba(179, 196, 215, 1)"></use><use xlink:href="#SvgjsPath2377" x="210" y="270" stroke="rgba(179, 196, 215, 1)"></use><use xlink:href="#SvgjsPath2378" x="210" y="330" stroke="rgba(179, 196, 215, 1)"></use><use xlink:href="#SvgjsPath2380" x="210" y="390" stroke="rgba(179, 196, 215, 1)"></use><use xlink:href="#SvgjsPath2381" x="210" y="450" stroke="rgba(179, 196, 215, 1)"></use><use xlink:href="#SvgjsPath2377" x="210" y="510" stroke="rgba(179, 196, 215, 1)"></use><use xlink:href="#SvgjsPath2381" x="210" y="570" stroke="rgba(179, 196, 215, 1)"></use><use xlink:href="#SvgjsPath2377" x="210" y="630" stroke="rgba(179, 196, 215, 1)"></use><use xlink:href="#SvgjsPath2377" x="210" y="690" stroke="rgba(179, 196, 215, 1)"></use><use xlink:href="#SvgjsPath2377" x="270" y="30" stroke="rgba(179, 196, 215, 1)"></use><use xlink:href="#SvgjsPath2377" x="270" y="90" stroke="rgba(179, 196, 215, 1)"></use><use xlink:href="#SvgjsPath2379" x="270" y="150" stroke="rgba(179, 196, 215, 1)"></use><use xlink:href="#SvgjsPath2376" x="270" y="210" stroke="rgba(179, 196, 215, 1)" stroke-width="3"></use><use xlink:href="#SvgjsPath2380" x="270" y="270" stroke="rgba(179, 196, 215, 1)"></use><use xlink:href="#SvgjsPath2377" x="270" y="330" stroke="rgba(179, 196, 215, 1)"></use><use xlink:href="#SvgjsPath2381" x="270" y="390" stroke="rgba(179, 196, 215, 1)"></use><use xlink:href="#SvgjsPath2379" x="270" y="450" stroke="rgba(179, 196, 215, 1)"></use><use xlink:href="#SvgjsPath2379" x="270" y="510" stroke="rgba(179, 196, 215, 1)"></use><use xlink:href="#SvgjsPath2379" x="270" y="570" stroke="rgba(179, 196, 215, 1)"></use><use xlink:href="#SvgjsPath2377" x="270" y="630" stroke="rgba(179, 196, 215, 1)"></use><use xlink:href="#SvgjsPath2380" x="270" y="690" stroke="rgba(179, 196, 215, 1)"></use><use xlink:href="#SvgjsPath2381" x="330" y="30" stroke="rgba(179, 196, 215, 1)"></use><use xlink:href="#SvgjsPath2376" x="330" y="90" stroke="rgba(179, 196, 215, 1)" stroke-width="3"></use><use xlink:href="#SvgjsPath2377" x="330" y="150" stroke="rgba(179, 196, 215, 1)"></use><use xlink:href="#SvgjsPath2376" x="330" y="210" stroke="rgba(179, 196, 215, 1)" stroke-width="3"></use><use xlink:href="#SvgjsPath2377" x="330" y="270" stroke="rgba(179, 196, 215, 1)"></use><use xlink:href="#SvgjsPath2377" x="330" y="330" stroke="rgba(179, 196, 215, 1)"></use><use xlink:href="#SvgjsPath2377" x="330" y="390" stroke="rgba(179, 196, 215, 1)"></use><use xlink:href="#SvgjsPath2377" x="330" y="450" stroke="rgba(179, 196, 215, 1)"></use><use xlink:href="#SvgjsPath2378" x="330" y="510" stroke="rgba(179, 196, 215, 1)"></use><use xlink:href="#SvgjsPath2377" x="330" y="570" stroke="rgba(179, 196, 215, 1)"></use><use xlink:href="#SvgjsPath2377" x="330" y="630" stroke="rgba(179, 196, 215, 1)"></use><use xlink:href="#SvgjsPath2377" x="330" y="690" stroke="rgba(179, 196, 215, 1)"></use><use xlink:href="#SvgjsPath2377" x="390" y="30" stroke="rgba(179, 196, 215, 1)"></use><use xlink:href="#SvgjsPath2379" x="390" y="90" stroke="rgba(179, 196, 215, 1)"></use><use xlink:href="#SvgjsPath2379" x="390" y="150" stroke="rgba(179, 196, 215, 1)"></use><use xlink:href="#SvgjsPath2381" x="390" y="210" stroke="rgba(179, 196, 215, 1)"></use><use xlink:href="#SvgjsPath2380" x="390" y="270" stroke="rgba(179, 196, 215, 1)"></use><use xlink:href="#SvgjsPath2380" x="390" y="330" stroke="rgba(179, 196, 215, 1)"></use><use xlink:href="#SvgjsPath2378" x="390" y="390" stroke="rgba(179, 196, 215, 1)"></use><use xlink:href="#SvgjsPath2377" x="390" y="450" stroke="rgba(179, 196, 215, 1)"></use><use xlink:href="#SvgjsPath2377" x="390" y="510" stroke="rgba(179, 196, 215, 1)"></use><use xlink:href="#SvgjsPath2378" x="390" y="570" stroke="rgba(179, 196, 215, 1)"></use><use xlink:href="#SvgjsPath2381" x="390" y="630" stroke="rgba(179, 196, 215, 1)"></use><use xlink:href="#SvgjsPath2377" x="390" y="690" stroke="rgba(179, 196, 215, 1)"></use><use xlink:href="#SvgjsPath2378" x="450" y="30" stroke="rgba(179, 196, 215, 1)"></use><use xlink:href="#SvgjsPath2379" x="450" y="90" stroke="rgba(179, 196, 215, 1)"></use><use xlink:href="#SvgjsPath2377" x="450" y="150" stroke="rgba(179, 196, 215, 1)"></use><use xlink:href="#SvgjsPath2379" x="450" y="210" stroke="rgba(179, 196, 215, 1)"></use><use xlink:href="#SvgjsPath2378" x="450" y="270" stroke="rgba(179, 196, 215, 1)"></use><use xlink:href="#SvgjsPath2378" x="450" y="330" stroke="rgba(179, 196, 215, 1)"></use><use xlink:href="#SvgjsPath2377" x="450" y="390" stroke="rgba(179, 196, 215, 1)"></use><use xlink:href="#SvgjsPath2381" x="450" y="450" stroke="rgba(179, 196, 215, 1)"></use><use xlink:href="#SvgjsPath2381" x="450" y="510" stroke="rgba(179, 196, 215, 1)"></use><use xlink:href="#SvgjsPath2377" x="450" y="570" stroke="rgba(179, 196, 215, 1)"></use><use xlink:href="#SvgjsPath2376" x="450" y="630" stroke="rgba(179, 196, 215, 1)" stroke-width="3"></use><use xlink:href="#SvgjsPath2380" x="450" y="690" stroke="rgba(179, 196, 215, 1)"></use><use xlink:href="#SvgjsPath2378" x="510" y="30" stroke="rgba(179, 196, 215, 1)"></use><use xlink:href="#SvgjsPath2380" x="510" y="90" stroke="rgba(179, 196, 215, 1)"></use><use xlink:href="#SvgjsPath2378" x="510" y="150" stroke="rgba(179, 196, 215, 1)"></use><use xlink:href="#SvgjsPath2381" x="510" y="210" stroke="rgba(179, 196, 215, 1)"></use><use xlink:href="#SvgjsPath2377" x="510" y="270" stroke="rgba(179, 196, 215, 1)"></use><use xlink:href="#SvgjsPath2380" x="510" y="330" stroke="rgba(179, 196, 215, 1)"></use><use xlink:href="#SvgjsPath2377" x="510" y="390" stroke="rgba(179, 196, 215, 1)"></use><use xlink:href="#SvgjsPath2378" x="510" y="450" stroke="rgba(179, 196, 215, 1)"></use><use xlink:href="#SvgjsPath2378" x="510" y="510" stroke="rgba(179, 196, 215, 1)"></use><use xlink:href="#SvgjsPath2376" x="510" y="570" stroke="rgba(179, 196, 215, 1)" stroke-width="3"></use><use xlink:href="#SvgjsPath2377" x="510" y="630" stroke="rgba(179, 196, 215, 1)"></use><use xlink:href="#SvgjsPath2380" x="510" y="690" stroke="rgba(179, 196, 215, 1)"></use><use xlink:href="#SvgjsPath2380" x="570" y="30" stroke="rgba(179, 196, 215, 1)"></use><use xlink:href="#SvgjsPath2378" x="570" y="90" stroke="rgba(179, 196, 215, 1)"></use><use xlink:href="#SvgjsPath2376" x="570" y="150" stroke="rgba(179, 196, 215, 1)" stroke-width="3"></use><use xlink:href="#SvgjsPath2377" x="570" y="210" stroke="rgba(179, 196, 215, 1)"></use><use xlink:href="#SvgjsPath2377" x="570" y="270" stroke="rgba(179, 196, 215, 1)"></use><use xlink:href="#SvgjsPath2380" x="570" y="330" stroke="rgba(179, 196, 215, 1)"></use><use xlink:href="#SvgjsPath2380" x="570" y="390" stroke="rgba(179, 196, 215, 1)"></use><use xlink:href="#SvgjsPath2378" x="570" y="450" stroke="rgba(179, 196, 215, 1)"></use><use xlink:href="#SvgjsPath2378" x="570" y="510" stroke="rgba(179, 196, 215, 1)"></use><use xlink:href="#SvgjsPath2377" x="570" y="570" stroke="rgba(179, 196, 215, 1)"></use><use xlink:href="#SvgjsPath2377" x="570" y="630" stroke="rgba(179, 196, 215, 1)"></use><use xlink:href="#SvgjsPath2378" x="570" y="690" stroke="rgba(179, 196, 215, 1)"></use><use xlink:href="#SvgjsPath2377" x="630" y="30" stroke="rgba(179, 196, 215, 1)"></use><use xlink:href="#SvgjsPath2379" x="630" y="90" stroke="rgba(179, 196, 215, 1)"></use><use xlink:href="#SvgjsPath2378" x="630" y="150" stroke="rgba(179, 196, 215, 1)"></use><use xlink:href="#SvgjsPath2380" x="630" y="210" stroke="rgba(179, 196, 215, 1)"></use><use xlink:href="#SvgjsPath2378" x="630" y="270" stroke="rgba(179, 196, 215, 1)"></use><use xlink:href="#SvgjsPath2377" x="630" y="330" stroke="rgba(179, 196, 215, 1)"></use><use xlink:href="#SvgjsPath2377" x="630" y="390" stroke="rgba(179, 196, 215, 1)"></use><use xlink:href="#SvgjsPath2377" x="630" y="450" stroke="rgba(179, 196, 215, 1)"></use><use xlink:href="#SvgjsPath2377" x="630" y="510" stroke="rgba(179, 196, 215, 1)"></use><use xlink:href="#SvgjsPath2379" x="630" y="570" stroke="rgba(179, 196, 215, 1)"></use><use xlink:href="#SvgjsPath2377" x="630" y="630" stroke="rgba(179, 196, 215, 1)"></use><use xlink:href="#SvgjsPath2381" x="630" y="690" stroke="rgba(179, 196, 215, 1)"></use><use xlink:href="#SvgjsPath2378" x="690" y="30" stroke="rgba(179, 196, 215, 1)"></use><use xlink:href="#SvgjsPath2378" x="690" y="90" stroke="rgba(179, 196, 215, 1)"></use><use xlink:href="#SvgjsPath2378" x="690" y="150" stroke="rgba(179, 196, 215, 1)"></use><use xlink:href="#SvgjsPath2378" x="690" y="210" stroke="rgba(179, 196, 215, 1)"></use><use xlink:href="#SvgjsPath2377" x="690" y="270" stroke="rgba(179, 196, 215, 1)"></use><use xlink:href="#SvgjsPath2378" x="690" y="330" stroke="rgba(179, 196, 215, 1)"></use><use xlink:href="#SvgjsPath2380" x="690" y="390" stroke="rgba(179, 196, 215, 1)"></use><use xlink:href="#SvgjsPath2376" x="690" y="450" stroke="rgba(179, 196, 215, 1)" stroke-width="3"></use><use xlink:href="#SvgjsPath2381" x="690" y="510" stroke="rgba(179, 196, 215, 1)"></use><use xlink:href="#SvgjsPath2380" x="690" y="570" stroke="rgba(179, 196, 215, 1)"></use><use xlink:href="#SvgjsPath2379" x="690" y="630" stroke="rgba(179, 196, 215, 1)"></use><use xlink:href="#SvgjsPath2377" x="690" y="690" stroke="rgba(179, 196, 215, 1)"></use></symbol></svg>